<?xml version="1.0" encoding="utf-8"?>
<!-- Generator: Adobe Illustrator 21.0.2, SVG Export Plug-In . SVG Version: 6.00 Build 0)  -->
<svg version="1.1" xmlns="http://www.w3.org/2000/svg" xmlns:xlink="http://www.w3.org/1999/xlink" x="0px" y="0px"
	 viewBox="0 0 100 100" style="enable-background:new 0 0 100 100;" xml:space="preserve">
<style type="text/css">
	.st0{fill:#CBD7D8;stroke:#00838F;stroke-miterlimit:10;}
	.st1{fill:#00838F;stroke:#FFFFFF;stroke-miterlimit:10;}
</style>
<g id="Container">
	<circle class="st0" cx="50" cy="50" r="48.5"/>
</g>
<g id="Device">
	<path class="st1" d="M82.5,35.5h-64c-1.6,0-3-1.3-3-3v0c0-1.6,1.3-3,3-3h64c1.7,0,3,1.3,3,3v0C85.5,34.2,84.2,35.5,82.5,35.5z"/>
	<path class="st1" d="M82.5,51.5h-64c-1.6,0-3-1.3-3-3v0c0-1.6,1.3-3,3-3h64c1.7,0,3,1.3,3,3v0C85.5,50.2,84.2,51.5,82.5,51.5z"/>
	<path class="st1" d="M82.5,66.5h-64c-1.6,0-3-1.3-3-3v0c0-1.6,1.3-3,3-3h64c1.7,0,3,1.3,3,3v0C85.5,65.2,84.2,66.5,82.5,66.5z"/>
</g>
</svg>
